# MagicaVoxel @ Ephtracy

# group
g chickenbaby

# material
mtllib chickenbaby.mtl
usemtl palette

# normals
vn -1 0 0
vn 1 0 0
vn 0 0 1
vn 0 0 -1
vn 0 -1 0
vn 0 1 0

# texcoords
vt 0.0449219 0.5
vt 0.0917969 0.5
vt 0.958984 0.5
vt 0.994141 0.5

# verts
v -11 11 6
v -11 11 -10
v -11 17 6
v -11 17 -10
v -7 0 8
v -7 0 -2
v -7 1 8
v -7 1 -2
v -7 8 11
v -7 8 -15
v -7 11 6
v -7 11 -10
v -7 17 6
v -7 17 -10
v -7 19 -8
v -7 19 -15
v -7 31 7
v -7 31 5
v -7 33 7
v -7 33 5
v -7 36 11
v -7 36 -8
v -5 1 1
v -5 1 -1
v -5 8 1
v -5 8 -1
v -5 8 -15
v -5 8 -17
v -5 19 -15
v -5 19 -17
v -3 0 8
v -3 0 4
v -3 1 8
v -3 1 4
v -2 29 16
v -2 29 11
v -2 32 16
v -2 32 11
v 1 0 8
v 1 0 -2
v 1 1 8
v 1 1 -2
v 3 1 1
v 3 1 -1
v 3 8 1
v 3 8 -1
v 5 0 8
v 5 0 4
v 5 1 8
v 5 1 4
v -5 0 8
v -5 0 4
v -5 1 8
v -5 1 4
v -3 1 1
v -3 1 -1
v -3 8 1
v -3 8 -1
v -1 0 8
v -1 0 -2
v -1 1 8
v -1 1 -2
v 2 29 16
v 2 29 11
v 2 32 16
v 2 32 11
v 3 0 8
v 3 0 4
v 3 1 8
v 3 1 4
v 5 1 1
v 5 1 -1
v 5 8 1
v 5 8 -1
v 5 8 -15
v 5 8 -17
v 5 19 -15
v 5 19 -17
v 7 0 8
v 7 0 -2
v 7 1 8
v 7 1 -2
v 7 8 11
v 7 8 -15
v 7 11 6
v 7 11 -10
v 7 17 6
v 7 17 -10
v 7 19 -8
v 7 19 -15
v 7 31 7
v 7 31 5
v 7 33 7
v 7 33 5
v 7 36 11
v 7 36 -8
v 11 11 6
v 11 11 -10
v 11 17 6
v 11 17 -10
v -2 29 16
v -2 32 16
v 2 29 16
v 2 32 16
v -7 8 11
v -7 36 11
v -2 29 11
v -2 32 11
v 2 29 11
v 2 32 11
v 7 8 11
v 7 36 11
v -7 0 8
v -7 1 8
v -5 0 8
v -5 1 8
v -3 0 8
v -3 1 8
v -1 0 8
v -1 1 8
v 1 0 8
v 1 1 8
v 3 0 8
v 3 1 8
v 5 0 8
v 5 1 8
v 7 0 8
v 7 1 8
v -11 11 6
v -11 17 6
v -7 11 6
v -7 17 6
v 7 11 6
v 7 17 6
v 11 11 6
v 11 17 6
v -5 0 4
v -5 1 4
v -3 0 4
v -3 1 4
v 3 0 4
v 3 1 4
v 5 0 4
v 5 1 4
v -5 1 1
v -5 8 1
v -3 1 1
v -3 8 1
v 3 1 1
v 3 8 1
v 5 1 1
v 5 8 1
v -5 1 -1
v -5 8 -1
v -3 1 -1
v -3 8 -1
v 3 1 -1
v 3 8 -1
v 5 1 -1
v 5 8 -1
v -7 0 -2
v -7 1 -2
v -1 0 -2
v -1 1 -2
v 1 0 -2
v 1 1 -2
v 7 0 -2
v 7 1 -2
v -7 19 -8
v -7 36 -8
v 7 19 -8
v 7 36 -8
v -11 11 -10
v -11 17 -10
v -7 11 -10
v -7 17 -10
v 7 11 -10
v 7 17 -10
v 11 11 -10
v 11 17 -10
v -7 8 -15
v -7 19 -15
v -5 8 -15
v -5 19 -15
v 5 8 -15
v 5 19 -15
v 7 8 -15
v 7 19 -15
v -5 8 -17
v -5 19 -17
v 5 8 -17
v 5 19 -17
v -7 0 8
v -5 0 8
v -3 0 8
v -1 0 8
v 1 0 8
v 3 0 8
v 5 0 8
v 7 0 8
v -5 0 4
v -3 0 4
v 3 0 4
v 5 0 4
v -7 0 -2
v -1 0 -2
v 1 0 -2
v 7 0 -2
v -7 8 11
v 7 8 11
v -5 8 1
v -3 8 1
v 3 8 1
v 5 8 1
v -5 8 -1
v -3 8 -1
v 3 8 -1
v 5 8 -1
v -7 8 -15
v -5 8 -15
v 5 8 -15
v 7 8 -15
v -5 8 -17
v 5 8 -17
v -11 11 6
v -7 11 6
v 7 11 6
v 11 11 6
v -11 11 -10
v -7 11 -10
v 7 11 -10
v 11 11 -10
v -2 29 16
v 2 29 16
v -2 29 11
v 2 29 11
v -7 1 8
v -5 1 8
v -3 1 8
v -1 1 8
v 1 1 8
v 3 1 8
v 5 1 8
v 7 1 8
v -5 1 4
v -3 1 4
v 3 1 4
v 5 1 4
v -5 1 1
v -3 1 1
v 3 1 1
v 5 1 1
v -5 1 -1
v -3 1 -1
v 3 1 -1
v 5 1 -1
v -7 1 -2
v -1 1 -2
v 1 1 -2
v 7 1 -2
v -11 17 6
v -7 17 6
v 7 17 6
v 11 17 6
v -11 17 -10
v -7 17 -10
v 7 17 -10
v 11 17 -10
v -7 19 -8
v 7 19 -8
v -7 19 -15
v -5 19 -15
v 5 19 -15
v 7 19 -15
v -5 19 -17
v 5 19 -17
v -2 32 16
v 2 32 16
v -2 32 11
v 2 32 11
v -7 36 11
v 7 36 11
v -7 36 -8
v 7 36 -8

# faces
f 3/1/1 2/1/1 1/1/1
f 4/1/1 2/1/1 3/1/1
f 7/2/1 6/2/1 5/2/1
f 8/2/1 6/2/1 7/2/1
f 11/1/1 10/1/1 9/1/1
f 12/1/1 10/1/1 11/1/1
f 13/1/1 11/1/1 9/1/1
f 14/1/1 10/1/1 12/1/1
f 15/1/1 14/1/1 13/1/1
f 16/1/1 10/1/1 14/1/1
f 16/1/1 14/1/1 15/1/1
f 17/1/1 13/1/1 9/1/1
f 17/1/1 15/1/1 13/1/1
f 18/1/1 15/1/1 17/1/1
f 19/1/1 17/1/1 9/1/1
f 19/4/1 18/4/1 17/4/1
f 20/1/1 15/1/1 18/1/1
f 20/4/1 18/4/1 19/4/1
f 21/1/1 19/1/1 9/1/1
f 21/1/1 20/1/1 19/1/1
f 22/1/1 15/1/1 20/1/1
f 22/1/1 20/1/1 21/1/1
f 25/2/1 24/2/1 23/2/1
f 26/2/1 24/2/1 25/2/1
f 29/1/1 28/1/1 27/1/1
f 30/1/1 28/1/1 29/1/1
f 33/2/1 32/2/1 31/2/1
f 34/2/1 32/2/1 33/2/1
f 37/2/1 36/2/1 35/2/1
f 38/2/1 36/2/1 37/2/1
f 41/2/1 40/2/1 39/2/1
f 42/2/1 40/2/1 41/2/1
f 45/2/1 44/2/1 43/2/1
f 46/2/1 44/2/1 45/2/1
f 49/2/1 48/2/1 47/2/1
f 50/2/1 48/2/1 49/2/1
f 51/2/2 52/2/2 53/2/2
f 53/2/2 52/2/2 54/2/2
f 55/2/2 56/2/2 57/2/2
f 57/2/2 56/2/2 58/2/2
f 59/2/2 60/2/2 61/2/2
f 61/2/2 60/2/2 62/2/2
f 63/2/2 64/2/2 65/2/2
f 65/2/2 64/2/2 66/2/2
f 67/2/2 68/2/2 69/2/2
f 69/2/2 68/2/2 70/2/2
f 71/2/2 72/2/2 73/2/2
f 73/2/2 72/2/2 74/2/2
f 75/1/2 76/1/2 77/1/2
f 77/1/2 76/1/2 78/1/2
f 79/2/2 80/2/2 81/2/2
f 81/2/2 80/2/2 82/2/2
f 83/1/2 84/1/2 85/1/2
f 85/1/2 84/1/2 86/1/2
f 83/1/2 85/1/2 87/1/2
f 86/1/2 84/1/2 88/1/2
f 87/1/2 88/1/2 89/1/2
f 88/1/2 84/1/2 90/1/2
f 89/1/2 88/1/2 90/1/2
f 83/1/2 87/1/2 91/1/2
f 87/1/2 89/1/2 91/1/2
f 91/1/2 89/1/2 92/1/2
f 83/1/2 91/1/2 93/1/2
f 91/4/2 92/4/2 93/4/2
f 92/1/2 89/1/2 94/1/2
f 93/4/2 92/4/2 94/4/2
f 83/1/2 93/1/2 95/1/2
f 93/1/2 94/1/2 95/1/2
f 94/1/2 89/1/2 96/1/2
f 95/1/2 94/1/2 96/1/2
f 97/1/2 98/1/2 99/1/2
f 99/1/2 98/1/2 100/1/2
f 103/2/3 102/2/3 101/2/3
f 104/2/3 102/2/3 103/2/3
f 107/1/3 106/1/3 105/1/3
f 108/1/3 106/1/3 107/1/3
f 109/1/3 107/1/3 105/1/3
f 110/1/3 106/1/3 108/1/3
f 111/1/3 109/1/3 105/1/3
f 111/1/3 110/1/3 109/1/3
f 112/1/3 106/1/3 110/1/3
f 112/1/3 110/1/3 111/1/3
f 115/2/3 114/2/3 113/2/3
f 116/2/3 114/2/3 115/2/3
f 119/2/3 118/2/3 117/2/3
f 120/2/3 118/2/3 119/2/3
f 123/2/3 122/2/3 121/2/3
f 124/2/3 122/2/3 123/2/3
f 127/2/3 126/2/3 125/2/3
f 128/2/3 126/2/3 127/2/3
f 131/1/3 130/1/3 129/1/3
f 132/1/3 130/1/3 131/1/3
f 135/1/3 134/1/3 133/1/3
f 136/1/3 134/1/3 135/1/3
f 139/2/3 138/2/3 137/2/3
f 140/2/3 138/2/3 139/2/3
f 143/2/3 142/2/3 141/2/3
f 144/2/3 142/2/3 143/2/3
f 147/2/3 146/2/3 145/2/3
f 148/2/3 146/2/3 147/2/3
f 151/2/3 150/2/3 149/2/3
f 152/2/3 150/2/3 151/2/3
f 153/2/4 154/2/4 155/2/4
f 155/2/4 154/2/4 156/2/4
f 157/2/4 158/2/4 159/2/4
f 159/2/4 158/2/4 160/2/4
f 161/2/4 162/2/4 163/2/4
f 163/2/4 162/2/4 164/2/4
f 165/2/4 166/2/4 167/2/4
f 167/2/4 166/2/4 168/2/4
f 169/1/4 170/1/4 171/1/4
f 171/1/4 170/1/4 172/1/4
f 173/1/4 174/1/4 175/1/4
f 175/1/4 174/1/4 176/1/4
f 177/1/4 178/1/4 179/1/4
f 179/1/4 178/1/4 180/1/4
f 181/1/4 182/1/4 183/1/4
f 183/1/4 182/1/4 184/1/4
f 185/1/4 186/1/4 187/1/4
f 187/1/4 186/1/4 188/1/4
f 189/1/4 190/1/4 191/1/4
f 191/1/4 190/1/4 192/1/4
f 201/2/5 194/2/5 193/2/5
f 202/2/5 196/2/5 195/2/5
f 203/2/5 198/2/5 197/2/5
f 204/2/5 200/2/5 199/2/5
f 205/2/5 201/2/5 193/2/5
f 205/2/5 202/2/5 201/2/5
f 206/2/5 196/2/5 202/2/5
f 206/2/5 202/2/5 205/2/5
f 207/2/5 203/2/5 197/2/5
f 207/2/5 204/2/5 203/2/5
f 208/2/5 200/2/5 204/2/5
f 208/2/5 204/2/5 207/2/5
f 211/1/5 210/1/5 209/1/5
f 212/1/5 210/1/5 211/1/5
f 213/1/5 210/1/5 212/1/5
f 214/1/5 210/1/5 213/1/5
f 215/1/5 211/1/5 209/1/5
f 216/1/5 213/1/5 212/1/5
f 217/1/5 213/1/5 216/1/5
f 218/1/5 210/1/5 214/1/5
f 219/1/5 217/1/5 216/1/5
f 219/1/5 218/1/5 217/1/5
f 219/1/5 215/1/5 209/1/5
f 219/1/5 216/1/5 215/1/5
f 220/1/5 218/1/5 219/1/5
f 221/1/5 210/1/5 218/1/5
f 221/1/5 218/1/5 220/1/5
f 222/1/5 210/1/5 221/1/5
f 223/1/5 221/1/5 220/1/5
f 224/1/5 221/1/5 223/1/5
f 229/1/5 226/1/5 225/1/5
f 230/1/5 226/1/5 229/1/5
f 231/1/5 228/1/5 227/1/5
f 232/1/5 228/1/5 231/1/5
f 235/2/5 234/2/5 233/2/5
f 236/2/5 234/2/5 235/2/5
f 237/2/6 238/2/6 245/2/6
f 239/2/6 240/2/6 246/2/6
f 241/2/6 242/2/6 247/2/6
f 243/2/6 244/2/6 248/2/6
f 237/2/6 245/2/6 249/2/6
f 245/2/6 246/2/6 249/2/6
f 246/2/6 240/2/6 250/2/6
f 249/2/6 246/2/6 250/2/6
f 241/2/6 247/2/6 251/2/6
f 247/2/6 248/2/6 251/2/6
f 248/2/6 244/2/6 252/2/6
f 251/2/6 248/2/6 252/2/6
f 237/2/6 249/2/6 253/2/6
f 250/2/6 240/2/6 254/2/6
f 241/2/6 251/2/6 255/2/6
f 252/2/6 244/2/6 256/2/6
f 237/2/6 253/2/6 257/2/6
f 253/2/6 254/2/6 257/2/6
f 254/2/6 240/2/6 258/2/6
f 257/2/6 254/2/6 258/2/6
f 255/2/6 256/2/6 259/2/6
f 241/2/6 255/2/6 259/2/6
f 256/2/6 244/2/6 260/2/6
f 259/2/6 256/2/6 260/2/6
f 261/1/6 262/1/6 265/1/6
f 265/1/6 262/1/6 266/1/6
f 263/1/6 264/1/6 267/1/6
f 267/1/6 264/1/6 268/1/6
f 269/1/6 270/1/6 271/1/6
f 271/1/6 270/1/6 272/1/6
f 272/1/6 270/1/6 273/1/6
f 273/1/6 270/1/6 274/1/6
f 272/1/6 273/1/6 275/1/6
f 275/1/6 273/1/6 276/1/6
f 277/2/6 278/2/6 279/2/6
f 279/2/6 278/2/6 280/2/6
f 281/1/6 282/1/6 283/1/6
f 283/1/6 282/1/6 284/1/6
