# MagicaVoxel @ Ephtracy

# group
g chicken

# material
mtllib chicken.mtl
usemtl palette

# normals
vn -1 0 0
vn 1 0 0
vn 0 0 1
vn 0 0 -1
vn 0 -1 0
vn 0 1 0

# texcoords
vt 0.0917969 0.5
vt 0.138672 0.5
vt 0.958984 0.5
vt 0.994141 0.5

# verts
v -11 11 6
v -11 11 -10
v -11 17 6
v -11 17 -10
v -7 0 8
v -7 0 -2
v -7 1 8
v -7 1 -2
v -7 8 11
v -7 8 -15
v -7 11 6
v -7 11 5
v -7 11 -9
v -7 11 -10
v -7 16 5
v -7 16 -9
v -7 17 6
v -7 17 -10
v -7 19 -8
v -7 19 -15
v -7 31 7
v -7 31 5
v -7 33 7
v -7 33 5
v -7 36 11
v -7 36 -8
v -5 1 1
v -5 1 -1
v -5 8 1
v -5 8 -1
v -5 8 -15
v -5 8 -17
v -5 19 -15
v -5 19 -17
v -5 35 1
v -5 35 -1
v -3 0 8
v -3 0 4
v -3 0 1
v -3 0 -1
v -3 1 8
v -3 1 4
v -3 1 1
v -3 1 -1
v -2 26 14
v -2 26 11
v -2 29 16
v -2 29 14
v -2 29 11
v -2 32 16
v -2 32 11
v -2 36 6
v -2 36 -4
v -2 39 6
v -2 39 -4
v 1 0 8
v 1 0 -2
v 1 1 8
v 1 1 -2
v 1 26 13
v 1 26 11
v 1 29 15
v 1 29 14
v 1 29 13
v 1 29 11
v 1 31 15
v 1 31 11
v 1 36 5
v 1 36 -3
v 1 38 5
v 1 38 -3
v 3 1 1
v 3 1 -1
v 3 8 1
v 3 8 -0
v 3 8 -1
v 3 35 -0
v 3 35 -1
v 4 8 1
v 4 8 -0
v 4 8 -15
v 4 8 -16
v 4 18 -15
v 4 18 -16
v 4 35 1
v 4 35 -0
v 5 0 8
v 5 0 4
v 5 0 1
v 5 0 -1
v 5 1 8
v 5 1 4
v 5 1 1
v 5 1 -1
v 5 8 -14
v 5 8 -15
v 5 18 -14
v 5 18 -15
v 6 8 10
v 6 8 -14
v 6 18 -8
v 6 18 -14
v 6 19 -7
v 6 19 -8
v 6 31 7
v 6 31 5
v 6 33 7
v 6 33 5
v 6 35 10
v 6 35 -7
v 10 11 5
v 10 11 -9
v 10 16 5
v 10 16 -9
v -10 11 5
v -10 11 -9
v -10 16 5
v -10 16 -9
v -6 8 10
v -6 8 -14
v -6 18 -8
v -6 18 -14
v -6 19 -7
v -6 19 -8
v -6 31 7
v -6 31 5
v -6 33 7
v -6 33 5
v -6 35 10
v -6 35 -7
v -5 0 8
v -5 0 4
v -5 0 1
v -5 0 -1
v -5 1 8
v -5 1 4
v -5 1 1
v -5 1 -1
v -5 8 -14
v -5 8 -15
v -5 18 -14
v -5 18 -15
v -4 8 1
v -4 8 -0
v -4 8 -15
v -4 8 -16
v -4 18 -15
v -4 18 -16
v -4 35 1
v -4 35 -0
v -3 1 1
v -3 1 -1
v -3 8 1
v -3 8 -0
v -3 8 -1
v -3 35 -0
v -3 35 -1
v -1 0 8
v -1 0 -2
v -1 1 8
v -1 1 -2
v -1 26 13
v -1 26 11
v -1 29 15
v -1 29 14
v -1 29 13
v -1 29 11
v -1 31 15
v -1 31 11
v -1 36 5
v -1 36 -3
v -1 38 5
v -1 38 -3
v 2 26 14
v 2 26 11
v 2 29 16
v 2 29 14
v 2 29 11
v 2 32 16
v 2 32 11
v 2 36 6
v 2 36 -4
v 2 39 6
v 2 39 -4
v 3 0 8
v 3 0 4
v 3 0 1
v 3 0 -1
v 3 1 8
v 3 1 4
v 3 1 1
v 3 1 -1
v 5 1 1
v 5 1 -1
v 5 8 1
v 5 8 -1
v 5 8 -15
v 5 8 -17
v 5 19 -15
v 5 19 -17
v 5 35 1
v 5 35 -1
v 7 0 8
v 7 0 -2
v 7 1 8
v 7 1 -2
v 7 8 11
v 7 8 -15
v 7 11 6
v 7 11 5
v 7 11 -9
v 7 11 -10
v 7 16 5
v 7 16 -9
v 7 17 6
v 7 17 -10
v 7 19 -8
v 7 19 -15
v 7 31 7
v 7 31 5
v 7 33 7
v 7 33 5
v 7 36 11
v 7 36 -8
v 11 11 6
v 11 11 -10
v 11 17 6
v 11 17 -10
v -2 29 16
v -2 32 16
v 2 29 16
v 2 32 16
v -2 26 14
v -2 29 14
v -1 29 14
v 1 29 14
v 2 26 14
v 2 29 14
v -7 8 11
v -7 36 11
v -2 26 11
v -2 29 11
v -2 32 11
v -1 26 11
v -1 29 11
v -1 31 11
v 1 26 11
v 1 29 11
v 1 31 11
v 2 26 11
v 2 29 11
v 2 32 11
v 7 8 11
v 7 36 11
v -7 0 8
v -7 1 8
v -5 0 8
v -5 1 8
v -3 0 8
v -3 1 8
v -1 0 8
v -1 1 8
v 1 0 8
v 1 1 8
v 3 0 8
v 3 1 8
v 5 0 8
v 5 1 8
v 7 0 8
v 7 1 8
v -11 11 6
v -11 17 6
v -7 11 6
v -7 17 6
v -2 36 6
v -2 39 6
v 2 36 6
v 2 39 6
v 7 11 6
v 7 17 6
v 11 11 6
v 11 17 6
v -5 0 4
v -5 1 4
v -3 0 4
v -3 1 4
v 3 0 4
v 3 1 4
v 5 0 4
v 5 1 4
v -5 1 1
v -5 8 1
v -5 35 1
v -4 8 1
v -4 35 1
v -3 1 1
v -3 8 1
v 3 1 1
v 3 8 1
v 4 8 1
v 4 35 1
v 5 1 1
v 5 8 1
v 5 35 1
v -4 8 -0
v -4 35 -0
v -3 8 -0
v -3 35 -0
v 3 8 -0
v 3 35 -0
v 4 8 -0
v 4 35 -0
v -5 0 -1
v -5 1 -1
v -3 0 -1
v -3 1 -1
v 3 0 -1
v 3 1 -1
v 5 0 -1
v 5 1 -1
v -1 36 -3
v -1 38 -3
v 1 36 -3
v 1 38 -3
v -6 19 -7
v -6 35 -7
v 6 19 -7
v 6 35 -7
v -6 18 -8
v -6 19 -8
v 6 18 -8
v 6 19 -8
v -10 11 -9
v -10 16 -9
v -7 11 -9
v -7 16 -9
v 7 11 -9
v 7 16 -9
v 10 11 -9
v 10 16 -9
v -6 8 -14
v -6 18 -14
v -5 8 -14
v -5 18 -14
v 5 8 -14
v 5 18 -14
v 6 8 -14
v 6 18 -14
v -5 8 -15
v -5 18 -15
v -4 8 -15
v -4 18 -15
v 4 8 -15
v 4 18 -15
v 5 8 -15
v 5 18 -15
v -4 8 -16
v -4 18 -16
v 4 8 -16
v 4 18 -16
v -1 29 15
v -1 31 15
v 1 29 15
v 1 31 15
v -1 26 13
v -1 29 13
v 1 26 13
v 1 29 13
v -6 8 10
v -6 35 10
v 6 8 10
v 6 35 10
v -10 11 5
v -10 16 5
v -7 11 5
v -7 16 5
v -1 36 5
v -1 38 5
v 1 36 5
v 1 38 5
v 7 11 5
v 7 16 5
v 10 11 5
v 10 16 5
v -5 0 1
v -5 1 1
v -3 0 1
v -3 1 1
v 3 0 1
v 3 1 1
v 5 0 1
v 5 1 1
v -5 1 -1
v -5 8 -1
v -5 35 -1
v -3 1 -1
v -3 8 -1
v -3 35 -1
v 3 1 -1
v 3 8 -1
v 3 35 -1
v 5 1 -1
v 5 8 -1
v 5 35 -1
v -7 0 -2
v -7 1 -2
v -1 0 -2
v -1 1 -2
v 1 0 -2
v 1 1 -2
v 7 0 -2
v 7 1 -2
v -2 36 -4
v -2 39 -4
v 2 36 -4
v 2 39 -4
v -7 19 -8
v -7 36 -8
v 7 19 -8
v 7 36 -8
v -11 11 -10
v -11 17 -10
v -7 11 -10
v -7 17 -10
v 7 11 -10
v 7 17 -10
v 11 11 -10
v 11 17 -10
v -7 8 -15
v -7 19 -15
v -5 8 -15
v -5 19 -15
v 5 8 -15
v 5 19 -15
v 7 8 -15
v 7 19 -15
v -5 8 -17
v -5 19 -17
v 5 8 -17
v 5 19 -17
v -7 0 8
v -5 0 8
v -3 0 8
v -1 0 8
v 1 0 8
v 3 0 8
v 5 0 8
v 7 0 8
v -5 0 4
v -3 0 4
v 3 0 4
v 5 0 4
v -5 0 1
v -3 0 1
v 3 0 1
v 5 0 1
v -5 0 -1
v -3 0 -1
v 3 0 -1
v 5 0 -1
v -7 0 -2
v -1 0 -2
v 1 0 -2
v 7 0 -2
v -5 1 1
v -3 1 1
v 3 1 1
v 5 1 1
v -5 1 -1
v -3 1 -1
v 3 1 -1
v 5 1 -1
v -7 8 11
v 7 8 11
v -6 8 10
v 6 8 10
v -6 8 -14
v -5 8 -14
v 5 8 -14
v 6 8 -14
v -7 8 -15
v -5 8 -15
v -4 8 -15
v 4 8 -15
v 5 8 -15
v 7 8 -15
v -4 8 -16
v 4 8 -16
v -5 8 -17
v 5 8 -17
v -11 11 6
v -7 11 6
v 7 11 6
v 11 11 6
v -10 11 5
v -7 11 5
v 7 11 5
v 10 11 5
v -10 11 -9
v -7 11 -9
v 7 11 -9
v 10 11 -9
v -11 11 -10
v -7 11 -10
v 7 11 -10
v 11 11 -10
v -10 16 5
v -7 16 5
v 7 16 5
v 10 16 5
v -10 16 -9
v -7 16 -9
v 7 16 -9
v 10 16 -9
v -6 18 -8
v 6 18 -8
v -6 18 -14
v -5 18 -14
v 5 18 -14
v 6 18 -14
v -5 18 -15
v -4 18 -15
v 4 18 -15
v 5 18 -15
v -4 18 -16
v 4 18 -16
v -6 19 -7
v 6 19 -7
v -6 19 -8
v 6 19 -8
v -2 26 14
v 2 26 14
v -1 26 13
v 1 26 13
v -2 26 11
v -1 26 11
v 1 26 11
v 2 26 11
v -2 29 16
v 2 29 16
v -1 29 15
v 1 29 15
v -2 29 14
v -1 29 14
v 1 29 14
v 2 29 14
v -1 31 15
v 1 31 15
v -1 31 11
v 1 31 11
v -6 35 10
v 6 35 10
v -5 35 1
v -4 35 1
v 4 35 1
v 5 35 1
v -4 35 -0
v -3 35 -0
v 3 35 -0
v 4 35 -0
v -5 35 -1
v -3 35 -1
v 3 35 -1
v 5 35 -1
v -6 35 -7
v 6 35 -7
v -1 38 5
v 1 38 5
v -1 38 -3
v 1 38 -3
v -7 1 8
v -5 1 8
v -3 1 8
v -1 1 8
v 1 1 8
v 3 1 8
v 5 1 8
v 7 1 8
v -5 1 4
v -3 1 4
v 3 1 4
v 5 1 4
v -5 1 1
v -3 1 1
v 3 1 1
v 5 1 1
v -5 1 -1
v -3 1 -1
v 3 1 -1
v 5 1 -1
v -7 1 -2
v -1 1 -2
v 1 1 -2
v 7 1 -2
v -4 8 1
v -3 8 1
v 3 8 1
v 4 8 1
v -4 8 -0
v -3 8 -0
v 3 8 -0
v 4 8 -0
v -11 17 6
v -7 17 6
v 7 17 6
v 11 17 6
v -11 17 -10
v -7 17 -10
v 7 17 -10
v 11 17 -10
v -7 19 -8
v 7 19 -8
v -7 19 -15
v -5 19 -15
v 5 19 -15
v 7 19 -15
v -5 19 -17
v 5 19 -17
v -1 29 14
v 1 29 14
v -1 29 13
v 1 29 13
v -2 32 16
v 2 32 16
v -2 32 11
v 2 32 11
v -7 36 11
v 7 36 11
v -2 36 6
v 2 36 6
v -1 36 5
v 1 36 5
v -1 36 -3
v 1 36 -3
v -2 36 -4
v 2 36 -4
v -7 36 -8
v 7 36 -8
v -2 39 6
v 2 39 6
v -2 39 -4
v 2 39 -4

# faces
f 3/3/1 2/3/1 1/3/1
f 4/3/1 2/3/1 3/3/1
f 7/1/1 6/1/1 5/1/1
f 8/1/1 6/1/1 7/1/1
f 11/3/1 10/3/1 9/3/1
f 12/3/1 10/3/1 11/3/1
f 13/3/1 10/3/1 12/3/1
f 14/3/1 10/3/1 13/3/1
f 15/3/1 13/3/1 12/3/1
f 16/3/1 13/3/1 15/3/1
f 17/3/1 11/3/1 9/3/1
f 18/3/1 10/3/1 14/3/1
f 19/3/1 18/3/1 17/3/1
f 20/3/1 10/3/1 18/3/1
f 20/3/1 18/3/1 19/3/1
f 21/3/1 17/3/1 9/3/1
f 21/3/1 19/3/1 17/3/1
f 22/3/1 19/3/1 21/3/1
f 23/3/1 21/3/1 9/3/1
f 23/4/1 22/4/1 21/4/1
f 24/3/1 19/3/1 22/3/1
f 24/4/1 22/4/1 23/4/1
f 25/3/1 23/3/1 9/3/1
f 25/3/1 24/3/1 23/3/1
f 26/3/1 19/3/1 24/3/1
f 26/3/1 24/3/1 25/3/1
f 29/1/1 28/1/1 27/1/1
f 30/1/1 28/1/1 29/1/1
f 33/3/1 32/3/1 31/3/1
f 34/3/1 32/3/1 33/3/1
f 35/3/1 30/3/1 29/3/1
f 36/3/1 30/3/1 35/3/1
f 41/1/1 38/1/1 37/1/1
f 42/1/1 38/1/1 41/1/1
f 43/1/1 40/1/1 39/1/1
f 44/1/1 40/1/1 43/1/1
f 48/2/1 46/2/1 45/2/1
f 49/2/1 46/2/1 48/2/1
f 50/1/1 48/1/1 47/1/1
f 50/1/1 49/1/1 48/1/1
f 51/1/1 49/1/1 50/1/1
f 54/2/1 53/2/1 52/2/1
f 55/2/1 53/2/1 54/2/1
f 58/1/1 57/1/1 56/1/1
f 59/1/1 57/1/1 58/1/1
f 64/2/1 61/2/1 60/2/1
f 65/2/1 61/2/1 64/2/1
f 66/1/1 63/1/1 62/1/1
f 66/1/1 64/1/1 63/1/1
f 66/1/1 65/1/1 64/1/1
f 67/1/1 65/1/1 66/1/1
f 70/2/1 69/2/1 68/2/1
f 71/2/1 69/2/1 70/2/1
f 74/1/1 73/1/1 72/1/1
f 75/1/1 73/1/1 74/1/1
f 76/1/1 73/1/1 75/1/1
f 77/3/1 76/3/1 75/3/1
f 78/3/1 76/3/1 77/3/1
f 83/3/1 82/3/1 81/3/1
f 84/3/1 82/3/1 83/3/1
f 85/3/1 80/3/1 79/3/1
f 86/3/1 80/3/1 85/3/1
f 91/1/1 88/1/1 87/1/1
f 92/1/1 88/1/1 91/1/1
f 93/1/1 90/1/1 89/1/1
f 94/1/1 90/1/1 93/1/1
f 97/3/1 96/3/1 95/3/1
f 98/3/1 96/3/1 97/3/1
f 101/3/1 100/3/1 99/3/1
f 102/3/1 100/3/1 101/3/1
f 103/3/1 101/3/1 99/3/1
f 104/3/1 101/3/1 103/3/1
f 105/3/1 103/3/1 99/3/1
f 106/3/1 103/3/1 105/3/1
f 107/3/1 105/3/1 99/3/1
f 107/4/1 106/4/1 105/4/1
f 108/3/1 103/3/1 106/3/1
f 108/4/1 106/4/1 107/4/1
f 109/3/1 107/3/1 99/3/1
f 109/3/1 108/3/1 107/3/1
f 110/3/1 103/3/1 108/3/1
f 110/3/1 108/3/1 109/3/1
f 113/3/1 112/3/1 111/3/1
f 114/3/1 112/3/1 113/3/1
f 115/3/2 116/3/2 117/3/2
f 117/3/2 116/3/2 118/3/2
f 119/3/2 120/3/2 121/3/2
f 121/3/2 120/3/2 122/3/2
f 119/3/2 121/3/2 123/3/2
f 123/3/2 121/3/2 124/3/2
f 119/3/2 123/3/2 125/3/2
f 125/3/2 123/3/2 126/3/2
f 119/3/2 125/3/2 127/3/2
f 125/4/2 126/4/2 127/4/2
f 126/3/2 123/3/2 128/3/2
f 127/4/2 126/4/2 128/4/2
f 119/3/2 127/3/2 129/3/2
f 127/3/2 128/3/2 129/3/2
f 128/3/2 123/3/2 130/3/2
f 129/3/2 128/3/2 130/3/2
f 131/1/2 132/1/2 135/1/2
f 135/1/2 132/1/2 136/1/2
f 133/1/2 134/1/2 137/1/2
f 137/1/2 134/1/2 138/1/2
f 139/3/2 140/3/2 141/3/2
f 141/3/2 140/3/2 142/3/2
f 145/3/2 146/3/2 147/3/2
f 147/3/2 146/3/2 148/3/2
f 143/3/2 144/3/2 149/3/2
f 149/3/2 144/3/2 150/3/2
f 151/1/2 152/1/2 153/1/2
f 153/1/2 152/1/2 154/1/2
f 154/1/2 152/1/2 155/1/2
f 154/3/2 155/3/2 156/3/2
f 156/3/2 155/3/2 157/3/2
f 158/1/2 159/1/2 160/1/2
f 160/1/2 159/1/2 161/1/2
f 162/2/2 163/2/2 166/2/2
f 166/2/2 163/2/2 167/2/2
f 164/1/2 165/1/2 168/1/2
f 165/1/2 166/1/2 168/1/2
f 166/1/2 167/1/2 168/1/2
f 168/1/2 167/1/2 169/1/2
f 170/2/2 171/2/2 172/2/2
f 172/2/2 171/2/2 173/2/2
f 174/2/2 175/2/2 177/2/2
f 177/2/2 175/2/2 178/2/2
f 176/1/2 177/1/2 179/1/2
f 177/1/2 178/1/2 179/1/2
f 179/1/2 178/1/2 180/1/2
f 181/2/2 182/2/2 183/2/2
f 183/2/2 182/2/2 184/2/2
f 185/1/2 186/1/2 189/1/2
f 189/1/2 186/1/2 190/1/2
f 187/1/2 188/1/2 191/1/2
f 191/1/2 188/1/2 192/1/2
f 193/1/2 194/1/2 195/1/2
f 195/1/2 194/1/2 196/1/2
f 197/3/2 198/3/2 199/3/2
f 199/3/2 198/3/2 200/3/2
f 195/3/2 196/3/2 201/3/2
f 201/3/2 196/3/2 202/3/2
f 203/1/2 204/1/2 205/1/2
f 205/1/2 204/1/2 206/1/2
f 207/3/2 208/3/2 209/3/2
f 209/3/2 208/3/2 210/3/2
f 210/3/2 208/3/2 211/3/2
f 211/3/2 208/3/2 212/3/2
f 210/3/2 211/3/2 213/3/2
f 213/3/2 211/3/2 214/3/2
f 207/3/2 209/3/2 215/3/2
f 212/3/2 208/3/2 216/3/2
f 215/3/2 216/3/2 217/3/2
f 216/3/2 208/3/2 218/3/2
f 217/3/2 216/3/2 218/3/2
f 207/3/2 215/3/2 219/3/2
f 215/3/2 217/3/2 219/3/2
f 219/3/2 217/3/2 220/3/2
f 207/3/2 219/3/2 221/3/2
f 219/4/2 220/4/2 221/4/2
f 220/3/2 217/3/2 222/3/2
f 221/4/2 220/4/2 222/4/2
f 207/3/2 221/3/2 223/3/2
f 221/3/2 222/3/2 223/3/2
f 222/3/2 217/3/2 224/3/2
f 223/3/2 222/3/2 224/3/2
f 225/3/2 226/3/2 227/3/2
f 227/3/2 226/3/2 228/3/2
f 231/1/3 230/1/3 229/1/3
f 232/1/3 230/1/3 231/1/3
f 235/2/3 234/2/3 233/2/3
f 236/2/3 235/2/3 233/2/3
f 237/2/3 236/2/3 233/2/3
f 238/2/3 236/2/3 237/2/3
f 241/3/3 240/3/3 239/3/3
f 242/3/3 240/3/3 241/3/3
f 243/3/3 240/3/3 242/3/3
f 244/3/3 241/3/3 239/3/3
f 247/3/3 244/3/3 239/3/3
f 247/3/3 246/3/3 245/3/3
f 247/3/3 245/3/3 244/3/3
f 248/3/3 246/3/3 247/3/3
f 249/3/3 246/3/3 248/3/3
f 250/3/3 247/3/3 239/3/3
f 252/3/3 240/3/3 243/3/3
f 253/3/3 251/3/3 250/3/3
f 253/3/3 252/3/3 251/3/3
f 253/3/3 250/3/3 239/3/3
f 254/3/3 240/3/3 252/3/3
f 254/3/3 252/3/3 253/3/3
f 257/1/3 256/1/3 255/1/3
f 258/1/3 256/1/3 257/1/3
f 261/1/3 260/1/3 259/1/3
f 262/1/3 260/1/3 261/1/3
f 265/1/3 264/1/3 263/1/3
f 266/1/3 264/1/3 265/1/3
f 269/1/3 268/1/3 267/1/3
f 270/1/3 268/1/3 269/1/3
f 273/3/3 272/3/3 271/3/3
f 274/3/3 272/3/3 273/3/3
f 277/2/3 276/2/3 275/2/3
f 278/2/3 276/2/3 277/2/3
f 281/3/3 280/3/3 279/3/3
f 282/3/3 280/3/3 281/3/3
f 285/1/3 284/1/3 283/1/3
f 286/1/3 284/1/3 285/1/3
f 289/1/3 288/1/3 287/1/3
f 290/1/3 288/1/3 289/1/3
f 294/1/3 292/1/3 291/1/3
f 294/3/3 293/3/3 292/3/3
f 295/3/3 293/3/3 294/3/3
f 296/1/3 294/1/3 291/1/3
f 297/1/3 294/1/3 296/1/3
f 300/1/3 299/1/3 298/1/3
f 302/1/3 300/1/3 298/1/3
f 303/3/3 301/3/3 300/3/3
f 303/1/3 300/1/3 302/1/3
f 304/3/3 301/3/3 303/3/3
f 307/3/3 306/3/3 305/3/3
f 308/3/3 306/3/3 307/3/3
f 311/3/3 310/3/3 309/3/3
f 312/3/3 310/3/3 311/3/3
f 315/1/3 314/1/3 313/1/3
f 316/1/3 314/1/3 315/1/3
f 319/1/3 318/1/3 317/1/3
f 320/1/3 318/1/3 319/1/3
f 323/2/3 322/2/3 321/2/3
f 324/2/3 322/2/3 323/2/3
f 327/3/3 326/3/3 325/3/3
f 328/3/3 326/3/3 327/3/3
f 331/3/3 330/3/3 329/3/3
f 332/3/3 330/3/3 331/3/3
f 335/3/3 334/3/3 333/3/3
f 336/3/3 334/3/3 335/3/3
f 339/3/3 338/3/3 337/3/3
f 340/3/3 338/3/3 339/3/3
f 343/3/3 342/3/3 341/3/3
f 344/3/3 342/3/3 343/3/3
f 347/3/3 346/3/3 345/3/3
f 348/3/3 346/3/3 347/3/3
f 351/3/3 350/3/3 349/3/3
f 352/3/3 350/3/3 351/3/3
f 355/3/3 354/3/3 353/3/3
f 356/3/3 354/3/3 355/3/3
f 359/3/3 358/3/3 357/3/3
f 360/3/3 358/3/3 359/3/3
f 361/1/4 362/1/4 363/1/4
f 363/1/4 362/1/4 364/1/4
f 365/2/4 366/2/4 367/2/4
f 367/2/4 366/2/4 368/2/4
f 369/3/4 370/3/4 371/3/4
f 371/3/4 370/3/4 372/3/4
f 373/3/4 374/3/4 375/3/4
f 375/3/4 374/3/4 376/3/4
f 377/2/4 378/2/4 379/2/4
f 379/2/4 378/2/4 380/2/4
f 381/3/4 382/3/4 383/3/4
f 383/3/4 382/3/4 384/3/4
f 385/1/4 386/1/4 387/1/4
f 387/1/4 386/1/4 388/1/4
f 389/1/4 390/1/4 391/1/4
f 391/1/4 390/1/4 392/1/4
f 393/1/4 394/1/4 396/1/4
f 394/3/4 395/3/4 397/3/4
f 396/1/4 394/1/4 397/1/4
f 397/3/4 395/3/4 398/3/4
f 399/1/4 400/1/4 402/1/4
f 400/3/4 401/3/4 403/3/4
f 402/1/4 400/1/4 403/1/4
f 403/3/4 401/3/4 404/3/4
f 405/1/4 406/1/4 407/1/4
f 407/1/4 406/1/4 408/1/4
f 409/1/4 410/1/4 411/1/4
f 411/1/4 410/1/4 412/1/4
f 413/2/4 414/2/4 415/2/4
f 415/2/4 414/2/4 416/2/4
f 417/3/4 418/3/4 419/3/4
f 419/3/4 418/3/4 420/3/4
f 421/3/4 422/3/4 423/3/4
f 423/3/4 422/3/4 424/3/4
f 425/3/4 426/3/4 427/3/4
f 427/3/4 426/3/4 428/3/4
f 429/3/4 430/3/4 431/3/4
f 431/3/4 430/3/4 432/3/4
f 433/3/4 434/3/4 435/3/4
f 435/3/4 434/3/4 436/3/4
f 437/3/4 438/3/4 439/3/4
f 439/3/4 438/3/4 440/3/4
f 449/1/5 442/1/5 441/1/5
f 450/1/5 444/1/5 443/1/5
f 451/1/5 446/1/5 445/1/5
f 452/1/5 448/1/5 447/1/5
f 453/1/5 449/1/5 441/1/5
f 453/1/5 450/1/5 449/1/5
f 454/1/5 444/1/5 450/1/5
f 454/1/5 450/1/5 453/1/5
f 455/1/5 451/1/5 445/1/5
f 455/1/5 452/1/5 451/1/5
f 456/1/5 448/1/5 452/1/5
f 456/1/5 452/1/5 455/1/5
f 457/1/5 453/1/5 441/1/5
f 458/1/5 444/1/5 454/1/5
f 459/1/5 455/1/5 445/1/5
f 460/1/5 448/1/5 456/1/5
f 461/1/5 457/1/5 441/1/5
f 461/1/5 458/1/5 457/1/5
f 462/1/5 444/1/5 458/1/5
f 462/1/5 458/1/5 461/1/5
f 463/1/5 460/1/5 459/1/5
f 463/1/5 459/1/5 445/1/5
f 464/1/5 448/1/5 460/1/5
f 464/1/5 460/1/5 463/1/5
f 469/1/5 466/1/5 465/1/5
f 470/1/5 466/1/5 469/1/5
f 471/1/5 468/1/5 467/1/5
f 472/1/5 468/1/5 471/1/5
f 475/3/5 474/3/5 473/3/5
f 476/3/5 474/3/5 475/3/5
f 477/3/5 475/3/5 473/3/5
f 480/3/5 474/3/5 476/3/5
f 481/3/5 478/3/5 477/3/5
f 481/3/5 477/3/5 473/3/5
f 482/3/5 478/3/5 481/3/5
f 485/3/5 480/3/5 479/3/5
f 486/3/5 474/3/5 480/3/5
f 486/3/5 480/3/5 485/3/5
f 487/3/5 483/3/5 482/3/5
f 488/3/5 485/3/5 484/3/5
f 489/3/5 487/3/5 482/3/5
f 489/3/5 488/3/5 487/3/5
f 490/3/5 485/3/5 488/3/5
f 490/3/5 488/3/5 489/3/5
f 495/3/5 492/3/5 491/3/5
f 496/3/5 492/3/5 495/3/5
f 497/3/5 494/3/5 493/3/5
f 498/3/5 494/3/5 497/3/5
f 499/3/5 495/3/5 491/3/5
f 502/3/5 494/3/5 498/3/5
f 503/3/5 500/3/5 499/3/5
f 503/3/5 499/3/5 491/3/5
f 504/3/5 500/3/5 503/3/5
f 505/3/5 502/3/5 501/3/5
f 506/3/5 494/3/5 502/3/5
f 506/3/5 502/3/5 505/3/5
f 511/3/5 508/3/5 507/3/5
f 512/3/5 508/3/5 511/3/5
f 513/3/5 510/3/5 509/3/5
f 514/3/5 510/3/5 513/3/5
f 517/3/5 516/3/5 515/3/5
f 518/3/5 516/3/5 517/3/5
f 519/3/5 516/3/5 518/3/5
f 520/3/5 516/3/5 519/3/5
f 521/3/5 519/3/5 518/3/5
f 522/3/5 519/3/5 521/3/5
f 523/3/5 519/3/5 522/3/5
f 524/3/5 519/3/5 523/3/5
f 525/3/5 523/3/5 522/3/5
f 526/3/5 523/3/5 525/3/5
f 529/3/5 528/3/5 527/3/5
f 530/3/5 528/3/5 529/3/5
f 533/2/5 532/2/5 531/2/5
f 534/2/5 532/2/5 533/2/5
f 535/2/5 533/2/5 531/2/5
f 536/2/5 533/2/5 535/2/5
f 537/2/5 532/2/5 534/2/5
f 538/2/5 532/2/5 537/2/5
f 541/1/5 540/1/5 539/1/5
f 542/1/5 540/1/5 541/1/5
f 543/1/5 541/1/5 539/1/5
f 544/1/5 541/1/5 543/1/5
f 545/1/5 540/1/5 542/1/5
f 546/1/5 540/1/5 545/1/5
f 549/1/5 548/1/5 547/1/5
f 550/1/5 548/1/5 549/1/5
f 553/3/5 552/3/5 551/3/5
f 554/3/5 552/3/5 553/3/5
f 555/3/5 552/3/5 554/3/5
f 556/3/5 552/3/5 555/3/5
f 557/3/5 555/3/5 554/3/5
f 558/3/5 555/3/5 557/3/5
f 559/3/5 555/3/5 558/3/5
f 560/3/5 555/3/5 559/3/5
f 561/3/5 553/3/5 551/3/5
f 562/3/5 559/3/5 558/3/5
f 563/3/5 559/3/5 562/3/5
f 564/3/5 552/3/5 556/3/5
f 565/3/5 563/3/5 562/3/5
f 565/3/5 564/3/5 563/3/5
f 565/3/5 562/3/5 561/3/5
f 565/3/5 561/3/5 551/3/5
f 566/3/5 552/3/5 564/3/5
f 566/3/5 564/3/5 565/3/5
f 569/2/5 568/2/5 567/2/5
f 570/2/5 568/2/5 569/2/5
f 571/1/6 572/1/6 579/1/6
f 573/1/6 574/1/6 580/1/6
f 575/1/6 576/1/6 581/1/6
f 577/1/6 578/1/6 582/1/6
f 571/1/6 579/1/6 583/1/6
f 579/1/6 580/1/6 583/1/6
f 580/1/6 574/1/6 584/1/6
f 583/1/6 580/1/6 584/1/6
f 575/1/6 581/1/6 585/1/6
f 581/1/6 582/1/6 585/1/6
f 582/1/6 578/1/6 586/1/6
f 585/1/6 582/1/6 586/1/6
f 571/1/6 583/1/6 587/1/6
f 584/1/6 574/1/6 588/1/6
f 575/1/6 585/1/6 589/1/6
f 586/1/6 578/1/6 590/1/6
f 571/1/6 587/1/6 591/1/6
f 587/1/6 588/1/6 591/1/6
f 588/1/6 574/1/6 592/1/6
f 591/1/6 588/1/6 592/1/6
f 589/1/6 590/1/6 593/1/6
f 575/1/6 589/1/6 593/1/6
f 590/1/6 578/1/6 594/1/6
f 593/1/6 590/1/6 594/1/6
f 595/1/6 596/1/6 599/1/6
f 599/1/6 596/1/6 600/1/6
f 597/1/6 598/1/6 601/1/6
f 601/1/6 598/1/6 602/1/6
f 603/3/6 604/3/6 607/3/6
f 607/3/6 604/3/6 608/3/6
f 605/3/6 606/3/6 609/3/6
f 609/3/6 606/3/6 610/3/6
f 611/3/6 612/3/6 613/3/6
f 613/3/6 612/3/6 614/3/6
f 614/3/6 612/3/6 615/3/6
f 615/3/6 612/3/6 616/3/6
f 614/3/6 615/3/6 617/3/6
f 617/3/6 615/3/6 618/3/6
f 619/2/6 620/2/6 621/2/6
f 621/2/6 620/2/6 622/2/6
f 623/1/6 624/1/6 625/1/6
f 625/1/6 624/1/6 626/1/6
f 627/3/6 628/3/6 629/3/6
f 629/3/6 628/3/6 630/3/6
f 631/3/6 632/3/6 633/3/6
f 633/3/6 632/3/6 634/3/6
f 627/3/6 629/3/6 635/3/6
f 630/3/6 628/3/6 636/3/6
f 627/3/6 635/3/6 637/3/6
f 635/3/6 636/3/6 637/3/6
f 636/3/6 628/3/6 638/3/6
f 637/3/6 636/3/6 638/3/6
f 639/2/6 640/2/6 641/2/6
f 641/2/6 640/2/6 642/2/6
