# MagicaVoxel @ Ephtracy

# group
g orange car

# material
mtllib orange car.mtl
usemtl palette

# normals
vn -1 0 0
vn 1 0 0
vn 0 0 1
vn 0 0 -1
vn 0 -1 0
vn 0 1 0

# texcoords
vt 0.0175781 0.5
vt 0.0878906 0.5
vt 0.0917969 0.5
vt 0.873047 0.5
vt 0.955078 0.5
vt 0.958984 0.5
vt 0.978516 0.5

# verts
v -20 4 9
v -20 4 -9
v -20 5 9
v -20 5 3
v -20 5 -3
v -20 5 -9
v -20 13 9
v -20 13 3
v -20 13 -3
v -20 13 -9
v -16 0 9
v -16 0 8
v -16 0 -8
v -16 0 -9
v -16 4 9
v -16 4 8
v -16 4 -8
v -16 4 -9
v -13 13 7
v -13 13 5
v -13 13 3
v -13 13 -3
v -13 13 -5
v -13 13 -7
v -13 19 5
v -13 19 -5
v -13 21 7
v -13 21 -7
v 0 10 11
v 0 10 9
v 0 10 -9
v 0 10 -11
v 0 13 11
v 0 13 9
v 0 13 -9
v 0 13 -11
v 10 0 9
v 10 0 8
v 10 0 -8
v 10 0 -9
v 10 4 9
v 10 4 8
v 10 4 -8
v 10 4 -9
v 19 4 8
v 19 4 -8
v 19 5 8
v 19 5 -8
v -19 4 8
v -19 4 -8
v -19 5 8
v -19 5 -8
v -10 0 9
v -10 0 8
v -10 0 -8
v -10 0 -9
v -10 4 9
v -10 4 8
v -10 4 -8
v -10 4 -9
v 5 10 11
v 5 10 9
v 5 10 -9
v 5 10 -11
v 5 13 11
v 5 13 9
v 5 13 -9
v 5 13 -11
v 7 13 7
v 7 13 5
v 7 13 3
v 7 13 -3
v 7 13 -5
v 7 13 -7
v 7 19 5
v 7 19 -5
v 7 21 7
v 7 21 -7
v 16 0 9
v 16 0 8
v 16 0 -8
v 16 0 -9
v 16 4 9
v 16 4 8
v 16 4 -8
v 16 4 -9
v 20 4 9
v 20 4 -9
v 20 5 9
v 20 5 3
v 20 5 -3
v 20 5 -9
v 20 13 9
v 20 13 3
v 20 13 -3
v 20 13 -9
v 0 10 11
v 0 13 11
v 5 10 11
v 5 13 11
v -20 4 9
v -20 5 9
v -20 13 9
v -16 0 9
v -16 4 9
v -16 5 9
v -16 6 9
v -14 2 9
v -14 4 9
v -14 6 9
v -14 9 9
v -12 2 9
v -12 4 9
v -10 0 9
v -10 4 9
v -10 5 9
v -10 6 9
v -4 6 9
v -4 9 9
v 0 10 9
v 0 13 9
v 5 10 9
v 5 13 9
v 10 0 9
v 10 4 9
v 10 5 9
v 10 6 9
v 12 2 9
v 12 4 9
v 14 2 9
v 14 4 9
v 16 0 9
v 16 4 9
v 16 5 9
v 16 6 9
v 20 4 9
v 20 5 9
v 20 13 9
v -13 13 7
v -13 21 7
v -11 13 7
v -11 19 7
v -8 13 7
v -8 19 7
v -5 13 7
v -5 19 7
v 4 13 7
v 4 19 7
v 7 13 7
v 7 21 7
v -19 4 -8
v -19 5 -8
v -16 0 -8
v -16 4 -8
v -16 5 -8
v -14 2 -8
v -14 4 -8
v -12 2 -8
v -12 4 -8
v -10 0 -8
v -10 4 -8
v -10 5 -8
v 10 0 -8
v 10 4 -8
v 10 5 -8
v 12 2 -8
v 12 4 -8
v 14 2 -8
v 14 4 -8
v 16 0 -8
v 16 4 -8
v 16 5 -8
v 19 4 -8
v 19 5 -8
v -19 4 8
v -19 5 8
v -16 0 8
v -16 4 8
v -16 5 8
v -14 2 8
v -14 4 8
v -12 2 8
v -12 4 8
v -10 0 8
v -10 4 8
v -10 5 8
v 10 0 8
v 10 4 8
v 10 5 8
v 12 2 8
v 12 4 8
v 14 2 8
v 14 4 8
v 16 0 8
v 16 4 8
v 16 5 8
v 19 4 8
v 19 5 8
v -13 13 -7
v -13 21 -7
v -11 13 -7
v -11 19 -7
v -8 13 -7
v -8 19 -7
v -5 13 -7
v -5 19 -7
v 4 13 -7
v 4 19 -7
v 7 13 -7
v 7 21 -7
v -20 4 -9
v -20 5 -9
v -20 13 -9
v -16 0 -9
v -16 4 -9
v -16 5 -9
v -16 6 -9
v -14 2 -9
v -14 4 -9
v -14 6 -9
v -14 9 -9
v -12 2 -9
v -12 4 -9
v -10 0 -9
v -10 4 -9
v -10 5 -9
v -10 6 -9
v -4 6 -9
v -4 9 -9
v 0 10 -9
v 0 13 -9
v 5 10 -9
v 5 13 -9
v 10 0 -9
v 10 4 -9
v 10 5 -9
v 10 6 -9
v 12 2 -9
v 12 4 -9
v 14 2 -9
v 14 4 -9
v 16 0 -9
v 16 4 -9
v 16 5 -9
v 16 6 -9
v 20 4 -9
v 20 5 -9
v 20 13 -9
v 0 10 -11
v 0 13 -11
v 5 10 -11
v 5 13 -11
v -16 0 9
v -10 0 9
v 10 0 9
v 16 0 9
v -16 0 8
v -10 0 8
v 10 0 8
v 16 0 8
v -16 0 -8
v -10 0 -8
v 10 0 -8
v 16 0 -8
v -16 0 -9
v -10 0 -9
v 10 0 -9
v 16 0 -9
v -20 4 9
v -16 4 9
v -10 4 9
v 10 4 9
v 16 4 9
v 20 4 9
v -19 4 8
v -16 4 8
v -10 4 8
v 10 4 8
v 16 4 8
v 19 4 8
v -19 4 -8
v -16 4 -8
v -10 4 -8
v 10 4 -8
v 16 4 -8
v 19 4 -8
v -20 4 -9
v -16 4 -9
v -10 4 -9
v 10 4 -9
v 16 4 -9
v 20 4 -9
v -19 5 8
v -16 5 8
v -10 5 8
v 10 5 8
v 16 5 8
v 19 5 8
v -19 5 -8
v -16 5 -8
v -10 5 -8
v 10 5 -8
v 16 5 -8
v 19 5 -8
v 0 10 11
v 5 10 11
v 0 10 9
v 5 10 9
v 0 10 -9
v 5 10 -9
v 0 10 -11
v 5 10 -11
v 0 13 11
v 5 13 11
v -20 13 9
v 0 13 9
v 5 13 9
v 20 13 9
v -13 13 7
v -11 13 7
v -8 13 7
v -5 13 7
v 4 13 7
v 7 13 7
v -13 13 5
v 7 13 5
v -20 13 3
v -13 13 3
v 7 13 3
v 20 13 3
v -20 13 -3
v -13 13 -3
v 7 13 -3
v 20 13 -3
v -13 13 -5
v 7 13 -5
v -13 13 -7
v -11 13 -7
v -8 13 -7
v -5 13 -7
v 4 13 -7
v 7 13 -7
v -20 13 -9
v 0 13 -9
v 5 13 -9
v 20 13 -9
v 0 13 -11
v 5 13 -11
v -13 21 7
v 7 21 7
v -13 21 -7
v 7 21 -7

# faces
f 3/7/1 2/7/1 1/7/1
f 4/7/1 2/7/1 3/7/1
f 5/7/1 2/7/1 4/7/1
f 6/7/1 2/7/1 5/7/1
f 7/3/1 4/3/1 3/3/1
f 8/2/1 5/2/1 4/2/1
f 8/3/1 4/3/1 7/3/1
f 9/3/1 6/3/1 5/3/1
f 9/2/1 5/2/1 8/2/1
f 10/3/1 6/3/1 9/3/1
f 15/5/1 12/5/1 11/5/1
f 16/5/1 12/5/1 15/5/1
f 17/5/1 14/5/1 13/5/1
f 18/5/1 14/5/1 17/5/1
f 25/6/1 20/6/1 19/6/1
f 25/4/1 21/4/1 20/4/1
f 25/4/1 23/4/1 22/4/1
f 25/4/1 22/4/1 21/4/1
f 26/6/1 24/6/1 23/6/1
f 26/4/1 23/4/1 25/4/1
f 27/6/1 25/6/1 19/6/1
f 27/6/1 26/6/1 25/6/1
f 28/6/1 24/6/1 26/6/1
f 28/6/1 26/6/1 27/6/1
f 33/3/1 30/3/1 29/3/1
f 34/3/1 30/3/1 33/3/1
f 35/3/1 32/3/1 31/3/1
f 36/3/1 32/3/1 35/3/1
f 41/5/1 38/5/1 37/5/1
f 42/5/1 38/5/1 41/5/1
f 43/5/1 40/5/1 39/5/1
f 44/5/1 40/5/1 43/5/1
f 47/7/1 46/7/1 45/7/1
f 48/7/1 46/7/1 47/7/1
f 49/7/2 50/7/2 51/7/2
f 51/7/2 50/7/2 52/7/2
f 53/5/2 54/5/2 57/5/2
f 57/5/2 54/5/2 58/5/2
f 55/5/2 56/5/2 59/5/2
f 59/5/2 56/5/2 60/5/2
f 61/3/2 62/3/2 65/3/2
f 65/3/2 62/3/2 66/3/2
f 63/3/2 64/3/2 67/3/2
f 67/3/2 64/3/2 68/3/2
f 69/6/2 70/6/2 75/6/2
f 70/4/2 71/4/2 75/4/2
f 72/4/2 73/4/2 75/4/2
f 71/4/2 72/4/2 75/4/2
f 73/6/2 74/6/2 76/6/2
f 75/4/2 73/4/2 76/4/2
f 69/6/2 75/6/2 77/6/2
f 75/6/2 76/6/2 77/6/2
f 76/6/2 74/6/2 78/6/2
f 77/6/2 76/6/2 78/6/2
f 79/5/2 80/5/2 83/5/2
f 83/5/2 80/5/2 84/5/2
f 81/5/2 82/5/2 85/5/2
f 85/5/2 82/5/2 86/5/2
f 87/7/2 88/7/2 89/7/2
f 89/7/2 88/7/2 90/7/2
f 90/7/2 88/7/2 91/7/2
f 91/7/2 88/7/2 92/7/2
f 89/3/2 90/3/2 93/3/2
f 90/2/2 91/2/2 94/2/2
f 93/3/2 90/3/2 94/3/2
f 91/3/2 92/3/2 95/3/2
f 94/2/2 91/2/2 95/2/2
f 95/3/2 92/3/2 96/3/2
f 99/3/3 98/3/3 97/3/3
f 100/3/3 98/3/3 99/3/3
f 105/7/3 102/7/3 101/7/3
f 106/3/3 103/3/3 102/3/3
f 106/7/3 102/7/3 105/7/3
f 107/3/3 103/3/3 106/3/3
f 108/5/3 105/5/3 104/5/3
f 108/5/3 106/5/3 105/5/3
f 108/5/3 107/5/3 106/5/3
f 109/5/3 107/5/3 108/5/3
f 110/3/3 103/3/3 107/3/3
f 110/5/3 107/5/3 109/5/3
f 111/3/3 103/3/3 110/3/3
f 112/6/3 109/6/3 108/6/3
f 112/5/3 108/5/3 104/5/3
f 113/5/3 110/5/3 109/5/3
f 113/6/3 109/6/3 112/6/3
f 114/5/3 112/5/3 104/5/3
f 114/5/3 113/5/3 112/5/3
f 115/5/3 110/5/3 113/5/3
f 115/5/3 113/5/3 114/5/3
f 116/5/3 110/5/3 115/5/3
f 117/2/3 111/2/3 110/2/3
f 117/5/3 110/5/3 116/5/3
f 118/2/3 111/2/3 117/2/3
f 118/3/3 117/3/3 116/3/3
f 119/3/3 103/3/3 111/3/3
f 119/2/3 111/2/3 118/2/3
f 120/3/3 119/3/3 118/3/3
f 120/3/3 103/3/3 119/3/3
f 121/3/3 103/3/3 120/3/3
f 122/3/3 120/3/3 118/3/3
f 125/7/3 116/7/3 115/7/3
f 126/3/3 118/3/3 116/3/3
f 126/3/3 123/3/3 122/3/3
f 126/7/3 116/7/3 125/7/3
f 126/3/3 122/3/3 118/3/3
f 127/3/3 123/3/3 126/3/3
f 128/5/3 125/5/3 124/5/3
f 128/5/3 126/5/3 125/5/3
f 128/5/3 127/5/3 126/5/3
f 129/5/3 127/5/3 128/5/3
f 130/5/3 128/5/3 124/5/3
f 130/6/3 129/6/3 128/6/3
f 131/5/3 127/5/3 129/5/3
f 131/6/3 129/6/3 130/6/3
f 132/5/3 130/5/3 124/5/3
f 132/5/3 131/5/3 130/5/3
f 133/5/3 127/5/3 131/5/3
f 133/5/3 131/5/3 132/5/3
f 134/5/3 127/5/3 133/5/3
f 135/3/3 123/3/3 127/3/3
f 135/5/3 127/5/3 134/5/3
f 136/7/3 134/7/3 133/7/3
f 137/3/3 135/3/3 134/3/3
f 137/7/3 134/7/3 136/7/3
f 138/3/3 123/3/3 135/3/3
f 138/3/3 135/3/3 137/3/3
f 141/6/3 140/6/3 139/6/3
f 142/6/3 140/6/3 141/6/3
f 143/5/3 142/5/3 141/5/3
f 144/6/3 140/6/3 142/6/3
f 144/5/3 142/5/3 143/5/3
f 145/6/3 144/6/3 143/6/3
f 146/6/3 140/6/3 144/6/3
f 146/6/3 144/6/3 145/6/3
f 147/5/3 146/5/3 145/5/3
f 148/6/3 140/6/3 146/6/3
f 148/5/3 146/5/3 147/5/3
f 149/6/3 148/6/3 147/6/3
f 150/6/3 140/6/3 148/6/3
f 150/6/3 148/6/3 149/6/3
f 154/7/3 152/7/3 151/7/3
f 155/7/3 152/7/3 154/7/3
f 156/5/3 154/5/3 153/5/3
f 156/5/3 155/5/3 154/5/3
f 157/5/3 155/5/3 156/5/3
f 158/5/3 156/5/3 153/5/3
f 158/6/3 157/6/3 156/6/3
f 159/5/3 155/5/3 157/5/3
f 159/6/3 157/6/3 158/6/3
f 160/5/3 158/5/3 153/5/3
f 160/5/3 159/5/3 158/5/3
f 161/5/3 155/5/3 159/5/3
f 161/5/3 159/5/3 160/5/3
f 162/5/3 155/5/3 161/5/3
f 164/7/3 162/7/3 161/7/3
f 165/7/3 162/7/3 164/7/3
f 166/5/3 164/5/3 163/5/3
f 166/5/3 165/5/3 164/5/3
f 167/5/3 165/5/3 166/5/3
f 168/5/3 166/5/3 163/5/3
f 168/6/3 167/6/3 166/6/3
f 169/5/3 165/5/3 167/5/3
f 169/6/3 167/6/3 168/6/3
f 170/5/3 168/5/3 163/5/3
f 170/5/3 169/5/3 168/5/3
f 171/5/3 165/5/3 169/5/3
f 171/5/3 169/5/3 170/5/3
f 172/5/3 165/5/3 171/5/3
f 173/7/3 172/7/3 171/7/3
f 174/7/3 172/7/3 173/7/3
f 175/7/4 176/7/4 178/7/4
f 178/7/4 176/7/4 179/7/4
f 177/5/4 178/5/4 180/5/4
f 178/5/4 179/5/4 180/5/4
f 180/5/4 179/5/4 181/5/4
f 177/5/4 180/5/4 182/5/4
f 180/6/4 181/6/4 182/6/4
f 181/5/4 179/5/4 183/5/4
f 182/6/4 181/6/4 183/6/4
f 177/5/4 182/5/4 184/5/4
f 182/5/4 183/5/4 184/5/4
f 183/5/4 179/5/4 185/5/4
f 184/5/4 183/5/4 185/5/4
f 185/5/4 179/5/4 186/5/4
f 185/7/4 186/7/4 188/7/4
f 188/7/4 186/7/4 189/7/4
f 187/5/4 188/5/4 190/5/4
f 188/5/4 189/5/4 190/5/4
f 190/5/4 189/5/4 191/5/4
f 187/5/4 190/5/4 192/5/4
f 190/6/4 191/6/4 192/6/4
f 191/5/4 189/5/4 193/5/4
f 192/6/4 191/6/4 193/6/4
f 187/5/4 192/5/4 194/5/4
f 192/5/4 193/5/4 194/5/4
f 193/5/4 189/5/4 195/5/4
f 194/5/4 193/5/4 195/5/4
f 195/5/4 189/5/4 196/5/4
f 195/7/4 196/7/4 197/7/4
f 197/7/4 196/7/4 198/7/4
f 199/6/4 200/6/4 201/6/4
f 201/6/4 200/6/4 202/6/4
f 201/5/4 202/5/4 203/5/4
f 202/6/4 200/6/4 204/6/4
f 203/5/4 202/5/4 204/5/4
f 203/6/4 204/6/4 205/6/4
f 204/6/4 200/6/4 206/6/4
f 205/6/4 204/6/4 206/6/4
f 205/5/4 206/5/4 207/5/4
f 206/6/4 200/6/4 208/6/4
f 207/5/4 206/5/4 208/5/4
f 207/6/4 208/6/4 209/6/4
f 208/6/4 200/6/4 210/6/4
f 209/6/4 208/6/4 210/6/4
f 211/7/4 212/7/4 215/7/4
f 212/3/4 213/3/4 216/3/4
f 215/7/4 212/7/4 216/7/4
f 216/3/4 213/3/4 217/3/4
f 214/5/4 215/5/4 218/5/4
f 215/5/4 216/5/4 218/5/4
f 216/5/4 217/5/4 218/5/4
f 218/5/4 217/5/4 219/5/4
f 217/3/4 213/3/4 220/3/4
f 219/5/4 217/5/4 220/5/4
f 220/3/4 213/3/4 221/3/4
f 218/6/4 219/6/4 222/6/4
f 214/5/4 218/5/4 222/5/4
f 219/5/4 220/5/4 223/5/4
f 222/6/4 219/6/4 223/6/4
f 214/5/4 222/5/4 224/5/4
f 222/5/4 223/5/4 224/5/4
f 223/5/4 220/5/4 225/5/4
f 224/5/4 223/5/4 225/5/4
f 225/5/4 220/5/4 226/5/4
f 220/2/4 221/2/4 227/2/4
f 226/5/4 220/5/4 227/5/4
f 227/2/4 221/2/4 228/2/4
f 226/3/4 227/3/4 228/3/4
f 221/3/4 213/3/4 229/3/4
f 228/2/4 221/2/4 229/2/4
f 228/3/4 229/3/4 230/3/4
f 229/3/4 213/3/4 230/3/4
f 230/3/4 213/3/4 231/3/4
f 228/3/4 230/3/4 232/3/4
f 225/7/4 226/7/4 235/7/4
f 226/3/4 228/3/4 236/3/4
f 232/3/4 233/3/4 236/3/4
f 235/7/4 226/7/4 236/7/4
f 228/3/4 232/3/4 236/3/4
f 236/3/4 233/3/4 237/3/4
f 234/5/4 235/5/4 238/5/4
f 235/5/4 236/5/4 238/5/4
f 236/5/4 237/5/4 238/5/4
f 238/5/4 237/5/4 239/5/4
f 234/5/4 238/5/4 240/5/4
f 238/6/4 239/6/4 240/6/4
f 239/5/4 237/5/4 241/5/4
f 240/6/4 239/6/4 241/6/4
f 234/5/4 240/5/4 242/5/4
f 240/5/4 241/5/4 242/5/4
f 241/5/4 237/5/4 243/5/4
f 242/5/4 241/5/4 243/5/4
f 243/5/4 237/5/4 244/5/4
f 237/3/4 233/3/4 245/3/4
f 244/5/4 237/5/4 245/5/4
f 243/7/4 244/7/4 246/7/4
f 244/3/4 245/3/4 247/3/4
f 246/7/4 244/7/4 247/7/4
f 245/3/4 233/3/4 248/3/4
f 247/3/4 245/3/4 248/3/4
f 249/3/4 250/3/4 251/3/4
f 251/3/4 250/3/4 252/3/4
f 257/5/5 254/5/5 253/5/5
f 258/5/5 254/5/5 257/5/5
f 259/5/5 256/5/5 255/5/5
f 260/5/5 256/5/5 259/5/5
f 265/5/5 262/5/5 261/5/5
f 266/5/5 262/5/5 265/5/5
f 267/5/5 264/5/5 263/5/5
f 268/5/5 264/5/5 267/5/5
f 275/7/5 270/7/5 269/7/5
f 276/7/5 270/7/5 275/7/5
f 277/7/5 272/7/5 271/7/5
f 278/7/5 272/7/5 277/7/5
f 279/7/5 274/7/5 273/7/5
f 280/7/5 274/7/5 279/7/5
f 281/7/5 275/7/5 269/7/5
f 286/7/5 274/7/5 280/7/5
f 287/7/5 281/7/5 269/7/5
f 287/7/5 282/7/5 281/7/5
f 288/7/5 282/7/5 287/7/5
f 289/7/5 284/7/5 283/7/5
f 290/7/5 284/7/5 289/7/5
f 291/7/5 286/7/5 285/7/5
f 292/7/5 274/7/5 286/7/5
f 292/7/5 286/7/5 291/7/5
f 299/1/5 294/1/5 293/1/5
f 299/1/5 298/1/5 297/1/5
f 299/1/5 297/1/5 296/1/5
f 299/1/5 296/1/5 295/1/5
f 299/1/5 295/1/5 294/1/5
f 300/1/5 298/1/5 299/1/5
f 301/1/5 298/1/5 300/1/5
f 302/1/5 298/1/5 301/1/5
f 303/1/5 298/1/5 302/1/5
f 304/1/5 298/1/5 303/1/5
f 307/3/5 306/3/5 305/3/5
f 308/3/5 306/3/5 307/3/5
f 311/3/5 310/3/5 309/3/5
f 312/3/5 310/3/5 311/3/5
f 313/3/6 314/3/6 316/3/6
f 316/3/6 314/3/6 317/3/6
f 315/3/6 316/3/6 319/3/6
f 317/3/6 318/3/6 319/3/6
f 316/3/6 317/3/6 319/3/6
f 319/3/6 318/3/6 320/3/6
f 320/3/6 318/3/6 321/3/6
f 321/3/6 318/3/6 322/3/6
f 322/3/6 318/3/6 323/3/6
f 323/3/6 318/3/6 324/3/6
f 315/3/6 319/3/6 325/3/6
f 324/3/6 318/3/6 326/3/6
f 315/3/6 325/3/6 327/3/6
f 327/3/6 325/3/6 328/3/6
f 326/3/6 318/3/6 329/3/6
f 329/3/6 318/3/6 330/3/6
f 327/2/6 328/2/6 331/2/6
f 331/2/6 328/2/6 332/2/6
f 329/2/6 330/2/6 333/2/6
f 333/2/6 330/2/6 334/2/6
f 331/3/6 332/3/6 335/3/6
f 333/3/6 334/3/6 336/3/6
f 331/3/6 335/3/6 337/3/6
f 336/3/6 334/3/6 342/3/6
f 340/3/6 341/3/6 343/3/6
f 341/3/6 342/3/6 343/3/6
f 331/3/6 337/3/6 343/3/6
f 337/3/6 338/3/6 343/3/6
f 339/3/6 340/3/6 343/3/6
f 338/3/6 339/3/6 343/3/6
f 343/3/6 342/3/6 344/3/6
f 344/3/6 342/3/6 345/3/6
f 342/3/6 334/3/6 346/3/6
f 345/3/6 342/3/6 346/3/6
f 344/3/6 345/3/6 347/3/6
f 347/3/6 345/3/6 348/3/6
f 349/6/6 350/6/6 351/6/6
f 351/6/6 350/6/6 352/6/6
